  <svg
            width="500"
            height="225"
            viewBox="0 0 573 316"
            fill="none"
            xmlns="http://www.w3.org/2000/svg"
          >
            <line
              x1="-4.37114e-08"
              y1="18.5"
              x2="573"
              y2="18.5"
              stroke="#F6F6F6"
            />
            <g clip-path="url(#clip0_0_1)">
              <path
                d="M294.849 314.383C285.79 315.713 276.622 316.155 267.477 315.702C245.426 314.591 223.74 308.197 205.206 296.174C196.989 290.843 189.151 284.293 184.897 275.495C179.124 263.547 181.143 248.422 189.387 238.015C192.394 234.262 196.093 231.115 200.284 228.746C200.906 228.396 201.54 228.059 202.182 227.736C209.166 224.235 217.011 222.803 224.786 223.61C238.006 225.05 250.206 233.101 257.255 244.349C263.534 254.379 265.722 266.213 267.012 278.074C267.254 280.308 267.464 282.55 267.666 284.778C266.543 291.233 264.776 297.561 262.393 303.666C262.272 303.964 262.173 304.27 262.096 304.582C263.446 307.503 264.732 310.452 265.951 313.427C267.097 314.047 268.381 314.371 269.685 314.369H294.795L294.849 314.383Z"
                fill="#F2F2F2"
              />
              <path
                d="M265.432 314.955C265.265 315.029 265.086 315.069 264.903 315.073C264.721 315.078 264.54 315.045 264.37 314.979C264.201 314.913 264.046 314.813 263.915 314.687C263.784 314.56 263.68 314.409 263.609 314.241C263.501 313.986 263.4 313.73 263.291 313.474C262.319 311.118 261.3 308.784 260.233 306.473C246.576 276.649 226.205 250.367 200.703 229.668C200.557 229.566 200.441 229.426 200.367 229.264C200.294 229.102 200.265 228.923 200.285 228.746C200.322 228.543 200.404 228.351 200.526 228.185C200.648 228.018 200.806 227.881 200.989 227.784C201.171 227.687 201.373 227.632 201.58 227.624C201.786 227.616 201.992 227.654 202.182 227.736C202.284 227.782 202.379 227.841 202.466 227.911C213.376 236.771 223.385 246.68 232.348 257.496C241.313 268.301 249.207 279.947 255.919 292.27C257.748 295.636 259.486 299.049 261.131 302.509C261.455 303.195 261.779 303.888 262.096 304.582C263.447 307.503 264.732 310.452 265.952 313.427C265.972 313.474 265.992 313.528 266.013 313.575C266.075 313.702 266.109 313.841 266.113 313.983C266.117 314.125 266.09 314.265 266.035 314.396C265.98 314.527 265.898 314.644 265.794 314.74C265.69 314.837 265.566 314.91 265.432 314.955Z"
                fill="white"
              />
              <path
                d="M175.884 226.175C190.426 226.175 202.215 214.421 202.215 199.922C202.215 185.423 190.426 173.67 175.884 173.67C161.341 173.67 149.552 185.423 149.552 199.922C149.552 214.421 161.341 226.175 175.884 226.175Z"
                fill="#0000FF"
              />
              <path
                d="M173.274 209.937C172.681 209.938 172.105 209.747 171.631 209.393L171.601 209.371L165.413 204.647C165.126 204.428 164.886 204.155 164.705 203.844C164.524 203.532 164.406 203.188 164.359 202.831C164.311 202.474 164.335 202.111 164.428 201.763C164.521 201.416 164.682 201.089 164.902 200.804C165.122 200.518 165.396 200.278 165.708 200.098C166.021 199.917 166.366 199.8 166.724 199.753C167.082 199.706 167.446 199.73 167.795 199.823C168.144 199.916 168.471 200.077 168.757 200.296L172.765 203.36L182.237 191.044C182.457 190.758 182.731 190.519 183.044 190.339C183.356 190.159 183.701 190.042 184.059 189.995C184.417 189.947 184.781 189.971 185.13 190.064C185.479 190.157 185.806 190.318 186.092 190.537L186.033 190.617L186.094 190.538C186.671 190.981 187.05 191.634 187.145 192.355C187.24 193.075 187.045 193.804 186.602 194.381L175.461 208.867C175.203 209.201 174.872 209.471 174.493 209.657C174.113 209.842 173.696 209.938 173.274 209.937Z"
                fill="white"
              />
              <path
                d="M572.196 316H0.804031C0.591223 315.999 0.387346 315.915 0.237086 315.764C0.0868258 315.614 0.00244141 315.411 0.00244141 315.198C0.00244141 314.986 0.0868258 314.783 0.237086 314.633C0.387346 314.482 0.591223 314.398 0.804031 314.397H572.196C572.409 314.398 572.613 314.482 572.763 314.633C572.913 314.783 572.998 314.986 572.998 315.198C572.998 315.411 572.913 315.614 572.763 315.764C572.613 315.915 572.409 315.999 572.196 316Z"
                fill="#3F3D56"
              />
              <path
                d="M111.772 91.5096C122.563 91.5096 131.311 82.7879 131.311 72.029C131.311 61.2702 122.563 52.5484 111.772 52.5484C100.98 52.5484 92.2324 61.2702 92.2324 72.029C92.2324 82.7879 100.98 91.5096 111.772 91.5096Z"
                fill="#2F2E41"
              />
              <path
                d="M96.5199 61.5256C99.6774 58.3776 100.317 53.9117 97.9492 51.5507C95.5811 49.1897 91.1017 49.8277 87.9442 52.9757C84.7867 56.1237 84.1468 60.5896 86.5149 62.9506C88.883 65.3116 93.3624 64.6736 96.5199 61.5256Z"
                fill="#2F2E41"
              />
              <path
                d="M132.137 55.3393C133.453 52.2687 131.19 48.3619 127.084 46.613C122.977 44.8642 118.582 45.9357 117.266 49.0062C115.951 52.0767 118.213 55.9836 122.32 57.7324C126.426 59.4813 130.821 58.4098 132.137 55.3393Z"
                fill="#2F2E41"
              />
              <path
                d="M166.18 184.499C166.674 183.563 166.956 182.531 167.006 181.475C167.057 180.419 166.874 179.365 166.472 178.387C166.069 177.409 165.456 176.531 164.677 175.814C163.897 175.098 162.969 174.56 161.959 174.24L133.726 114.695L120.811 123.724L152.624 179.416C152.197 181.144 152.421 182.968 153.252 184.543C154.084 186.118 155.467 187.334 157.138 187.96C158.809 188.587 160.652 188.581 162.319 187.943C163.985 187.304 165.359 186.079 166.18 184.499Z"
                fill="#FFB8B8"
              />
              <path
                d="M140.2 124.629L125.206 131.314C124.779 131.504 124.316 131.6 123.849 131.596C123.382 131.592 122.921 131.488 122.498 131.29C122.074 131.092 121.699 130.806 121.397 130.45C121.095 130.095 120.873 129.678 120.747 129.23L116.325 113.51C115.361 111.328 115.305 108.854 116.168 106.631C117.031 104.408 118.743 102.617 120.928 101.65C123.114 100.683 125.595 100.62 127.827 101.474C130.06 102.328 131.861 104.03 132.837 106.206L141.615 119.926C141.866 120.319 142.03 120.761 142.094 121.223C142.158 121.685 142.122 122.154 141.988 122.601C141.853 123.047 141.624 123.459 141.316 123.809C141.007 124.159 140.627 124.439 140.2 124.629Z"
                fill="#CCCCCC"
              />
              <path
                d="M70.9499 190.402C71.9828 190.163 72.9505 189.701 73.7849 189.048C74.6193 188.396 75.3001 187.569 75.7793 186.626C76.2585 185.683 76.5245 184.647 76.5586 183.59C76.5926 182.534 76.3938 181.482 75.9763 180.511L102.715 120.284L87.4189 116.443L65.9457 176.852C64.3548 177.659 63.1163 179.021 62.4648 180.678C61.8133 182.335 61.7942 184.173 62.411 185.843C63.0279 187.513 64.2378 188.9 65.8116 189.74C67.3854 190.58 69.2136 190.816 70.9499 190.402Z"
                fill="#FFB8B8"
              />
              <path
                d="M63.6611 299.569L71.4391 302.392L86.0639 273.825L74.584 269.659L63.6611 299.569Z"
                fill="#FFB8B8"
              />
              <path
                d="M83.8096 315.038L59.3647 306.164L62.8035 296.748L77.8038 302.193C80.3086 303.103 82.3486 304.967 83.4749 307.376C84.6012 309.784 84.7216 312.541 83.8096 315.038Z"
                fill="#2F2E41"
              />
              <path
                d="M82.0589 283.13C81.5816 283.13 81.1103 283.024 80.6789 282.821L71.7401 278.599C71.0073 278.256 70.4298 277.652 70.1214 276.906C69.8129 276.16 69.7958 275.326 70.0735 274.568L95.3004 204.919C95.5093 204.342 95.878 203.836 96.3638 203.46C96.8495 203.084 97.4323 202.853 98.0445 202.793C98.6568 202.734 99.2733 202.849 99.8226 203.125C100.372 203.401 100.831 203.827 101.148 204.353L114.491 226.524C114.788 227.018 114.947 227.582 114.954 228.158C114.96 228.733 114.812 229.301 114.526 229.801L84.8946 281.499C84.6075 281.996 84.1941 282.408 83.6963 282.694C83.1984 282.98 82.6336 283.13 82.0589 283.13Z"
                fill="#2F2E41"
              />
              <path
                d="M112.391 93.2125C121.55 93.2125 128.974 85.8104 128.974 76.6795C128.974 67.5486 121.55 60.1465 112.391 60.1465C103.233 60.1465 95.8086 67.5486 95.8086 76.6795C95.8086 85.8104 103.233 93.2125 112.391 93.2125Z"
                fill="#FFB8B8"
              />
              <path
                d="M135.851 151.849L106.489 143.798L90.873 112.66C90.1227 111.164 89.7685 109.501 89.8439 107.831C89.9193 106.16 90.4219 104.536 91.3038 103.113C92.1858 101.691 93.4178 100.516 94.883 99.7019C96.3483 98.8875 97.998 98.46 99.6755 98.4601H123.036C125.461 98.4585 127.801 99.3507 129.605 100.965C135.872 106.562 149.037 122.697 135.978 151.567L135.851 151.849Z"
                fill="#CCCCCC"
              />
              <path
                d="M99.0949 131.055L84.2186 124.112C83.7954 123.915 83.4198 123.629 83.1174 123.273C82.8151 122.918 82.5931 122.502 82.4666 122.053C82.3401 121.605 82.3121 121.134 82.3844 120.674C82.4567 120.214 82.6277 119.774 82.8856 119.386L91.9265 105.773C92.9526 103.62 94.7932 101.96 97.0447 101.158C99.2962 100.356 101.775 100.476 103.938 101.493C106.1 102.51 107.77 104.34 108.581 106.583C109.392 108.825 109.278 111.297 108.264 113.456L103.589 129.048C103.455 129.494 103.226 129.906 102.918 130.257C102.61 130.607 102.23 130.887 101.803 131.077C101.377 131.268 100.914 131.364 100.447 131.36C99.9792 131.357 99.5182 131.252 99.0949 131.055Z"
                fill="#CCCCCC"
              />
              <path
                d="M117.093 307.375H125.37L129.309 275.543L117.091 275.544L117.093 307.375Z"
                fill="#FFB8B8"
              />
              <path
                d="M141.334 315.037L115.32 315.038L115.319 305.017L131.283 305.016C133.949 305.016 136.505 306.072 138.39 307.951C140.275 309.83 141.334 312.379 141.334 315.037Z"
                fill="#2F2E41"
              />
              <path
                d="M120.219 295.245C119.474 295.246 118.753 294.991 118.175 294.523C117.597 294.056 117.199 293.404 117.047 292.677C114.668 281.501 102.31 224.252 92.6657 194.763C82.8527 164.761 99.5648 151.096 103.015 148.661C103.382 148.402 103.674 148.051 103.86 147.643L106.367 142.146C106.627 141.579 107.045 141.097 107.571 140.76C108.097 140.423 108.71 140.243 109.336 140.243H109.356C128.145 140.355 134.461 146.26 136.305 148.794C136.577 149.172 136.763 149.603 136.851 150.06C136.939 150.516 136.926 150.986 136.814 151.437L124.926 200.337C124.852 200.64 124.835 200.954 124.876 201.264L136.704 290.051C136.761 290.477 136.732 290.911 136.619 291.327C136.506 291.742 136.311 292.131 136.046 292.471C135.78 292.81 135.45 293.094 135.073 293.305C134.697 293.516 134.282 293.65 133.853 293.699L120.6 295.223C120.474 295.238 120.346 295.245 120.219 295.245Z"
                fill="#2F2E41"
              />
              <path
                d="M94.9663 66.2803C98.7557 68.8842 103.253 70.2701 107.856 70.2517C106.214 71.3866 104.345 72.1532 102.378 72.4987C108.497 73.8073 114.821 73.8427 120.954 72.6027C122.318 72.3848 123.633 71.9343 124.843 71.2711C125.446 70.9354 125.971 70.4769 126.385 69.9255C126.799 69.3741 127.091 68.7421 127.244 68.0705C127.651 65.7492 125.837 63.6402 123.951 62.2189C121.065 60.0759 117.736 58.5995 114.207 57.8963C110.678 57.1932 107.036 57.281 103.545 58.1533C101.265 58.7408 98.9815 59.7334 97.5009 61.5585C96.0203 63.3837 95.5817 66.1975 96.9924 68.0769L94.9663 66.2803Z"
                fill="#2F2E41"
              />
              <path
                d="M399.365 137.993C404.213 137.993 408.142 134.076 408.142 129.243C408.142 124.41 404.213 120.492 399.365 120.492C394.518 120.492 390.588 124.41 390.588 129.243C390.588 134.076 394.518 137.993 399.365 137.993Z"
                fill="#0000FF"
              />
              <path
                d="M398.495 132.581C398.297 132.581 398.105 132.518 397.947 132.399L397.937 132.392L395.875 130.818C395.779 130.745 395.698 130.654 395.638 130.55C395.577 130.446 395.538 130.331 395.522 130.212C395.506 130.093 395.514 129.972 395.545 129.856C395.576 129.74 395.629 129.631 395.703 129.535C395.776 129.44 395.867 129.36 395.972 129.3C396.076 129.24 396.191 129.201 396.311 129.185C396.43 129.169 396.552 129.177 396.668 129.209C396.785 129.24 396.894 129.294 396.989 129.367L398.325 130.388L401.483 126.283C401.556 126.188 401.647 126.108 401.751 126.048C401.856 125.988 401.971 125.949 402.09 125.933C402.209 125.918 402.33 125.926 402.447 125.957C402.563 125.988 402.672 126.041 402.768 126.114C402.96 126.262 403.087 126.48 403.118 126.72C403.15 126.96 403.085 127.203 402.938 127.396L399.224 132.224C399.138 132.336 399.027 132.426 398.901 132.487C398.775 132.549 398.636 132.581 398.495 132.581Z"
                fill="white"
              />
              <path
                d="M399.365 163.573C404.213 163.573 408.142 159.655 408.142 154.822C408.142 149.989 404.213 146.071 399.365 146.071C394.518 146.071 390.588 149.989 390.588 154.822C390.588 159.655 394.518 163.573 399.365 163.573Z"
                fill="#0000FF"
              />
              <path
                d="M398.495 158.16C398.297 158.16 398.105 158.097 397.947 157.979L397.937 157.971L395.875 156.397C395.779 156.324 395.698 156.233 395.638 156.129C395.577 156.025 395.538 155.91 395.522 155.791C395.506 155.672 395.514 155.551 395.545 155.435C395.576 155.319 395.629 155.21 395.703 155.115C395.776 155.019 395.867 154.939 395.972 154.879C396.076 154.819 396.191 154.78 396.311 154.764C396.43 154.749 396.552 154.757 396.668 154.788C396.785 154.819 396.894 154.873 396.989 154.946L398.325 155.968L401.483 151.863C401.556 151.767 401.647 151.687 401.751 151.627C401.856 151.567 401.971 151.528 402.09 151.513C402.209 151.497 402.33 151.505 402.447 151.536C402.563 151.567 402.672 151.62 402.768 151.693C402.96 151.841 403.087 152.059 403.118 152.299C403.15 152.539 403.085 152.782 402.938 152.975L399.224 157.804C399.138 157.915 399.027 158.005 398.901 158.067C398.775 158.129 398.636 158.161 398.495 158.16Z"
                fill="white"
              />
              <path
                d="M404.091 193.191C408.939 193.191 412.868 189.273 412.868 184.44C412.868 179.607 408.939 175.689 404.091 175.689C399.244 175.689 395.314 179.607 395.314 184.44C395.314 189.273 399.244 193.191 404.091 193.191Z"
                fill="#0000FF"
              />
              <path
                d="M403.221 187.778C403.024 187.779 402.832 187.715 402.674 187.597L402.664 187.59L400.601 186.015C400.505 185.942 400.425 185.851 400.364 185.747C400.304 185.643 400.264 185.528 400.248 185.409C400.232 185.29 400.24 185.169 400.271 185.053C400.302 184.937 400.356 184.828 400.429 184.733C400.503 184.637 400.594 184.557 400.698 184.497C400.803 184.437 400.918 184.398 401.038 184.382C401.157 184.367 401.278 184.375 401.395 184.406C401.511 184.437 401.62 184.491 401.716 184.564L403.052 185.586L406.209 181.481C406.282 181.385 406.374 181.306 406.478 181.245C406.582 181.185 406.697 181.146 406.817 181.131C406.936 181.115 407.057 181.123 407.173 181.154C407.29 181.185 407.399 181.239 407.494 181.312C407.687 181.459 407.813 181.677 407.845 181.917C407.877 182.158 407.812 182.401 407.664 182.593L403.95 187.422C403.864 187.533 403.754 187.623 403.628 187.685C403.501 187.747 403.362 187.779 403.221 187.778Z"
                fill="white"
              />
              <path
                d="M488.728 257.502C488.637 257.502 488.579 257.5 488.559 257.499L477.662 257.5V255.898H488.599C488.852 255.907 494.018 256.052 498.778 250.294C505.871 241.712 511.696 220.468 499.165 167.993C482.314 97.4347 496.368 35.0999 503.193 11.5748C503.529 10.4109 503.589 9.18504 503.368 7.99399C503.148 6.80295 502.652 5.6794 501.921 4.71209C501.19 3.74479 500.243 2.96025 499.156 2.42046C498.068 1.88067 496.87 1.60043 495.655 1.60187H332.916C331.678 1.60352 330.459 1.896 329.356 2.45556C328.254 3.01513 327.299 3.82602 326.57 4.82242C323.679 8.7872 319.711 16.4039 317.229 30.1762L315.647 29.893C318.184 15.8216 322.28 7.98078 325.27 3.88068C326.149 2.68008 327.299 1.70298 328.627 1.0287C329.956 0.354422 331.425 0.00197899 332.916 -1.08991e-05H495.655C497.119 -0.00141552 498.563 0.336609 499.873 0.987357C501.184 1.63811 502.325 2.58375 503.205 3.74957C504.086 4.9154 504.683 6.26946 504.949 7.70478C505.214 9.14011 505.142 10.6174 504.736 12.0199C497.947 35.4229 483.966 97.4343 500.728 167.623C513.436 220.835 507.327 242.54 499.964 251.378C495.108 257.207 489.757 257.502 488.728 257.502Z"
                fill="#E6E6E6"
              />
              <path
                d="M459.406 286.736C459.315 286.736 459.257 286.734 459.237 286.733L448.34 286.734V285.132H459.277C459.531 285.14 464.696 285.286 469.456 279.528C476.549 270.946 482.374 249.702 469.843 197.228C452.992 126.669 467.046 64.334 473.871 40.8089C474.207 39.645 474.267 38.4191 474.046 37.2281C473.826 36.037 473.33 34.9135 472.599 33.9462C471.868 32.9789 470.921 32.1943 469.834 31.6545C468.746 31.1148 467.547 30.8345 466.333 30.8359H303.594C302.356 30.8376 301.137 31.1301 300.034 31.6896C298.932 32.2492 297.977 33.0601 297.247 34.0565C294.356 38.0213 290.389 45.638 287.907 59.4103L286.325 59.1271C288.862 45.0556 292.958 37.2148 295.948 33.1148C296.827 31.9141 297.977 30.937 299.305 30.2628C300.634 29.5885 302.103 29.236 303.594 29.2341H466.333C467.797 29.2327 469.241 29.5707 470.551 30.2214C471.862 30.8722 473.002 31.8178 473.883 32.9837C474.764 34.1495 475.361 35.5035 475.627 36.9389C475.892 38.3742 475.82 39.8515 475.414 41.2539C468.625 64.657 454.644 126.668 471.406 196.857C484.113 250.069 478.004 271.774 470.642 280.612C465.786 286.441 460.435 286.736 459.406 286.736Z"
                fill="#CCCCCC"
              />
              <path
                d="M442.083 226.094C425.318 155.906 439.301 93.8894 446.093 70.4911C446.498 69.0885 446.57 67.6115 446.304 66.1765C446.038 64.7414 445.441 63.3876 444.56 62.2219C443.68 61.0561 442.539 60.1103 441.229 59.459C439.92 58.8077 438.476 58.4687 437.012 58.4688H274.269C272.779 58.4703 271.311 58.8222 269.983 59.4959C268.655 60.1696 267.505 61.1461 266.626 62.3461C260.057 71.3527 246.425 101.22 261.651 183.861C269.793 228.073 269.671 258.216 267.011 278.074C265.519 289.254 263.217 297.171 261.13 302.509L260.908 303.074C260.468 304.154 260.239 305.308 260.233 306.473C260.217 307.789 260.482 309.094 261.009 310.301C261.536 311.507 262.314 312.589 263.291 313.474C263.928 314.069 264.649 314.568 265.431 314.955C266.081 315.285 266.768 315.536 267.477 315.702C268.2 315.878 268.941 315.966 269.685 315.965H429.916C429.937 315.965 429.99 315.971 430.085 315.971C431.111 315.971 436.465 315.675 441.32 309.846C448.679 301.007 454.789 279.305 442.083 226.094ZM440.131 308.762C435.372 314.524 430.207 314.376 429.957 314.369H269.685C268.402 314.369 267.138 314.055 266.005 313.456C264.871 312.856 263.903 311.989 263.183 310.929C262.55 310.014 262.125 308.971 261.937 307.875C261.749 306.779 261.804 305.655 262.096 304.582C262.172 304.27 262.272 303.964 262.393 303.666C264.776 297.561 266.543 291.233 267.666 284.778C271.474 264.079 272.183 232.139 263.23 183.572C248.12 101.543 261.482 72.1268 267.923 63.2885C268.653 62.2936 269.609 61.4839 270.711 60.925C271.814 60.366 273.033 60.0735 274.269 60.0709H437.012C438.226 60.0701 439.424 60.3506 440.511 60.8903C441.598 61.4301 442.544 62.2143 443.274 63.1811C444.005 64.1479 444.5 65.2707 444.721 66.4611C444.942 67.6514 444.883 68.8767 444.547 70.0401C437.721 93.5663 423.671 155.906 440.523 226.464C453.054 278.935 447.228 300.179 440.131 308.762Z"
                fill="#3F3D56"
              />
              <path
                d="M364.769 134.897H280.922C279.218 134.897 277.583 134.222 276.378 133.021C275.173 131.819 274.496 130.189 274.496 128.49C274.496 126.79 275.173 125.161 276.378 123.959C277.583 122.757 279.218 122.082 280.922 122.082H364.769C366.474 122.082 368.108 122.757 369.313 123.959C370.519 125.161 371.196 126.79 371.196 128.49C371.196 130.189 370.519 131.819 369.313 133.021C368.108 134.222 366.474 134.897 364.769 134.897Z"
                fill="#CCCCCC"
              />
              <path
                d="M364.769 162.496H280.922C279.218 162.496 277.583 161.821 276.378 160.619C275.173 159.418 274.496 157.788 274.496 156.088C274.496 154.389 275.173 152.759 276.378 151.558C277.583 150.356 279.218 149.681 280.922 149.681H364.769C366.474 149.681 368.108 150.356 369.313 151.558C370.519 152.759 371.196 154.389 371.196 156.088C371.196 157.788 370.519 159.418 369.313 160.619C368.108 161.821 366.474 162.496 364.769 162.496Z"
                fill="#CCCCCC"
              />
              <path
                d="M371.52 190.768H287.674C285.969 190.768 284.335 190.093 283.129 188.891C281.924 187.689 281.247 186.06 281.247 184.36C281.247 182.661 281.924 181.031 283.129 179.829C284.335 178.628 285.969 177.953 287.674 177.953H371.52C373.225 177.953 374.86 178.628 376.065 179.829C377.27 181.031 377.947 182.661 377.947 184.36C377.947 186.06 377.27 187.689 376.065 188.891C374.86 190.093 373.225 190.768 371.52 190.768Z"
                fill="#CCCCCC"
              />
              <path
                d="M376.247 220.386H292.4C290.695 220.386 289.061 219.711 287.855 218.509C286.65 217.307 285.973 215.678 285.973 213.978C285.973 212.279 286.65 210.649 287.855 209.448C289.061 208.246 290.695 207.571 292.4 207.571H376.247C377.951 207.571 379.586 208.246 380.791 209.448C381.996 210.649 382.673 212.279 382.673 213.978C382.673 215.678 381.996 217.307 380.791 218.509C379.586 219.711 377.951 220.386 376.247 220.386Z"
                fill="#CCCCCC"
              />
              <path
                d="M376.282 85.1457H316.031C315.187 85.1466 314.35 84.9815 313.57 84.6598C312.789 84.3382 312.08 83.8664 311.482 83.2713C310.885 82.6762 310.411 81.9696 310.088 81.1918C309.764 80.414 309.598 79.5802 309.598 78.7382C309.598 77.8962 309.764 77.0625 310.088 76.2847C310.411 75.5069 310.885 74.8002 311.482 74.2051C312.08 73.6101 312.789 73.1382 313.57 72.8166C314.35 72.495 315.187 72.3299 316.031 72.3308H376.282C377.987 72.3308 379.621 73.0058 380.827 74.2075C382.032 75.4091 382.709 77.0389 382.709 78.7382C382.709 80.4376 382.032 82.0674 380.827 83.269C379.621 84.4706 377.987 85.1457 376.282 85.1457Z"
                fill="#0000FF"
              />
              <path
                d="M409.493 222.729C414.34 222.729 418.27 218.811 418.27 213.978C418.27 209.145 414.34 205.228 409.493 205.228C404.645 205.228 400.715 209.145 400.715 213.978C400.715 218.811 404.645 222.729 409.493 222.729Z"
                fill="#CCCCCC"
              />
              <path
                d="M380.298 249.331H296.451C294.747 249.331 293.112 248.656 291.907 247.454C290.702 246.252 290.024 244.623 290.024 242.923C290.024 241.224 290.702 239.594 291.907 238.393C293.112 237.191 294.747 236.516 296.451 236.516H380.298C382.002 236.516 383.637 237.191 384.842 238.393C386.048 239.594 386.725 241.224 386.725 242.923C386.725 244.623 386.048 246.252 384.842 247.454C383.637 248.656 382.002 249.331 380.298 249.331Z"
                fill="#CCCCCC"
              />
              <path
                d="M413.544 251.674C418.391 251.674 422.321 247.756 422.321 242.923C422.321 238.09 418.391 234.173 413.544 234.173C408.696 234.173 404.767 238.09 404.767 242.923C404.767 247.756 408.696 251.674 413.544 251.674Z"
                fill="#CCCCCC"
              />
            </g>
            <defs>
              <clipPath id="clip0_0_1">
                <rect width="573" height="316" fill="white" />
              </clipPath>
            </defs>
          </svg>